<?xml version="1.0" encoding="utf-8"?>
<!DOCTYPE svg PUBLIC "-//W3C//DTD SVG 20010904//EN" "http://www.w3.org/TR/2001/REC-SVG-20010904/DTD/svg10.dtd">
<svg version="1.0" xmlns="http://www.w3.org/2000/svg" width="1256pt" height="1256pt" viewBox="0 0 1256 1256" preserveAspectRatio="xMidYMid meet">
<g fill="#1C57E6FE">
<path d="M 293.00 1239.36 C 291.07 1239.17 284.55 1238.54 278.50 1237.95 C 187.39 1229.12 106.92 1179.34 57.85 1101.48 C 36.33 1067.32 23.57 1030.90 16.71 984.00 L 14.58 969.50 L 14.24 646.50 C 13.89 319.98 14.16 288.90 17.51 262.14 C 24.08 209.59 45.49 158.70 77.96 118.45 C 87.06 107.16 111.63 82.93 123.99 73.06 C 168.01 37.87 224.32 15.47 282.64 9.94 C 296.30 8.65 885.18 7.85 940.50 9.05 C 975.95 9.81 982.09 10.19 994.50 12.35 C 1068.84 25.31 1130.27 60.21 1176.58 115.81 C 1210.05 155.98 1231.32 204.75 1238.40 257.50 C 1242.10 285.06 1242.14 289.26 1241.78 634.00 L 1241.43 971.50 L 1239.22 986.50 C 1233.52 1025.32 1226.29 1049.40 1211.30 1079.50 C 1190.89 1120.48 1158.16 1158.50 1119.50 1186.14 C 1087.33 1209.14 1050.07 1225.20 1009.77 1233.45 C 978.24 1239.89 1006.07 1239.44 634.00 1239.57 C 448.38 1239.64 294.93 1239.54 293.00 1239.36ZM 618.85 1020.02 C 659.81 1014.04 691.50 1002.13 723.50 980.71 C 736.89 971.74 746.10 964.02 760.04 950.06 C 805.79 904.22 832.06 842.43 837.02 769.00 C 837.77 757.76 838.02 709.81 837.80 618.50 L 837.46 484.50 L 835.26 476.69 C 829.33 455.72 816.49 442.76 795.99 437.06 C 780.39 432.72 750.61 432.05 733.01 435.65 C 712.94 439.75 699.27 449.66 691.88 465.44 C 685.26 479.59 685.71 468.55 684.99 633.00 C 684.40 768.00 684.17 783.32 682.64 791.00 C 677.24 817.99 668.03 836.68 651.80 853.59 C 634.22 871.90 612.40 882.12 587.00 883.94 C 561.03 885.81 537.42 879.17 519.59 865.01 C 506.12 854.31 496.36 838.92 493.56 824.00 C 492.79 819.88 491.48 812.77 490.64 808.21 C 488.34 795.61 482.73 784.88 474.28 776.90 C 460.07 763.50 441.56 758.02 410.50 758.01 C 381.10 758.01 361.65 764.36 347.51 778.59 C 340.63 785.50 336.24 793.12 332.84 804.00 C 329.39 815.06 329.62 832.96 333.43 849.50 C 345.23 900.72 378.62 947.49 426.00 979.17 C 446.98 993.20 479.75 1007.52 505.58 1013.94 C 518.43 1017.14 542.54 1021.13 554.50 1022.03 C 571.46 1023.31 603.12 1022.32 618.85 1020.02ZM 436.00 707.58 C 467.25 700.27 491.75 676.85 501.13 645.33 C 504.09 635.38 504.74 617.78 502.56 606.94 C 495.56 572.30 468.23 544.70 433.72 537.44 C 422.73 535.13 406.01 535.55 394.65 538.44 C 370.06 544.67 348.76 562.16 337.52 585.33 C 324.41 612.35 326.33 644.71 342.52 669.57 C 348.53 678.82 363.23 692.78 372.31 697.90 C 381.55 703.10 394.57 707.66 403.84 708.96 C 412.48 710.16 427.77 709.51 436.00 707.58ZM 780.51 397.00 C 813.07 388.67 837.42 364.46 845.57 332.30 C 848.48 320.87 848.86 304.23 846.49 292.96 C 839.70 260.67 814.69 234.03 782.50 224.79 C 775.68 222.84 772.22 222.50 759.00 222.52 C 746.00 222.54 742.24 222.91 735.71 224.78 C 702.32 234.36 678.31 260.10 671.34 293.79 C 669.18 304.27 669.96 324.58 672.93 334.83 C 675.43 343.47 680.25 353.53 685.77 361.66 C 691.20 369.64 704.23 381.86 712.65 386.86 C 732.69 398.77 758.51 402.62 780.51 397.00Z"/></g>
<g fill="#FDFDFDFF">
<path d="M 549.50 1020.94 C 487.70 1014.63 434.85 991.53 395.08 953.44 C 363.46 923.14 343.44 889.18 334.41 850.50 C 332.03 840.31 331.60 836.31 331.58 824.00 C 331.56 810.86 331.82 808.74 334.27 801.42 C 340.99 781.39 356.81 767.58 379.77 761.73 C 387.65 759.72 390.83 759.51 412.50 759.57 C 433.98 759.63 437.34 759.87 444.50 761.84 C 457.07 765.29 466.28 770.14 473.61 777.18 C 484.15 787.30 488.57 796.99 491.34 816.07 C 492.19 821.88 494.05 829.75 495.48 833.57 C 504.18 856.75 526.16 875.15 553.50 882.14 C 566.31 885.42 591.61 885.45 603.61 882.22 C 627.90 875.67 646.29 863.36 661.05 843.78 C 675.25 824.93 682.69 802.84 684.99 772.68 C 685.59 764.76 686.00 705.28 686.00 623.71 C 686.00 472.75 685.72 479.42 692.71 465.00 C 699.47 451.07 712.52 441.29 730.11 436.98 C 746.50 432.97 778.73 433.23 795.50 437.51 C 811.15 441.51 823.84 451.53 830.30 465.01 C 837.21 479.40 837.00 474.38 836.99 627.38 C 836.98 711.22 836.59 769.16 835.97 776.50 C 830.39 842.68 805.09 902.05 764.07 945.27 C 725.40 986.00 677.05 1010.91 619.80 1019.60 C 607.53 1021.46 562.97 1022.31 549.50 1020.94Z"/></g>
<g fill="#FDFDFDFF">
<path d="M 743.34 397.52 C 702.94 390.19 673.70 357.81 670.46 316.81 C 668.66 294.01 677.49 268.88 693.51 251.23 C 704.12 239.55 715.61 232.06 730.50 227.13 C 754.22 219.28 777.76 221.14 800.06 232.60 C 830.71 248.37 849.64 281.34 847.65 315.50 C 846.87 328.89 844.86 336.38 838.51 349.50 C 832.29 362.37 823.76 373.00 813.36 380.86 C 793.77 395.64 767.48 401.90 743.34 397.52Z"/></g>
<g fill="#FDFDFDFF">
<path d="M 401.50 707.84 C 373.47 702.57 350.85 685.59 338.43 660.50 C 331.96 647.42 329.85 638.19 329.91 623.26 C 329.99 601.13 336.32 583.49 350.03 567.13 C 374.04 538.50 414.85 528.64 449.54 543.08 C 475.11 553.73 494.67 576.72 501.12 603.70 C 502.88 611.09 503.15 614.66 502.76 626.00 C 502.37 637.86 501.92 640.65 499.10 649.00 C 494.83 661.60 488.38 672.36 479.33 681.99 C 462.76 699.60 440.27 709.07 415.50 708.85 C 410.55 708.81 404.25 708.35 401.50 707.84Z"/></g>
</svg>
